# xmcd
#
# Track frame offsets: 
#        150
#        24410
#        43065
#        61030
#        83870
#        111375
#        137865
#        160395
#        181660
#        202705
#        225090
#        248570
#        277300
#
# Disc length: 4041 seconds
#
# Revision: 3
# Processed by: cddbd v1.5.2PL0 Copyright (c) Steve Scherf et al.
# Submitted via: ExactAudioCopy v1.0b1
#
DISCID=a40fc70d
DTITLE=Various Artist - HITECH disk 4-INAK RECORDS
DYEAR=1997
DGENRE=Blues
TTITLE0=Blues Company - Crippled Mind
TTITLE1=Blues Company - Cry For Me
TTITLE2=Blues Company - Red Blood
TTITLE3=Bernard Allison Group - You're Hearting Me
TTITLE4=Bernard Allison Group - Cadillac Assembly Line
TTITLE5=Toscho - On Lord
TTITLE6=Toscho - All My Tears Went By
TTITLE7=Toscho - Dinner At Woolfie's
TTITLE8=Mo Foster - Crete Revisited
TTITLE9=Mo Foster - And Then There Were Ten
TTITLE10=Luther Allison - Don't Burn My Bread
TTITLE11=Luther Allison - Meet Me In My Own Hometown
TTITLE12=Luther Allison - She's Fine
EXTD=
EXTT0=
EXTT1=
EXTT2=
EXTT3=
EXTT4=
EXTT5=
EXTT6=
EXTT7=
EXTT8=
EXTT9=
EXTT10=
EXTT11=
EXTT12=
PLAYORDER=
